<svg width="40" height="40" version="1.1" xmlns="http://www.w3.org/2000/svg" desc="Created with imagetracer.js version 1.2.6" ><path fill="rgb(220,4,14)" stroke="rgb(220,4,14)" stroke-width="1" opacity="1" d="M 18.5 0 L 20 2.5 L 18 1.5 L 18.5 0 Z " /><path fill="rgb(220,4,14)" stroke="rgb(220,4,14)" stroke-width="1" opacity="1" d="M 39.5 5 L 40 7.5 L 39 7.5 L 39.5 5 Z " /><path fill="rgb(220,4,14)" stroke="rgb(220,4,14)" stroke-width="1" opacity="1" d="M 8.5 10 L 9 11.5 L 7 12.5 L 8.5 10 Z " /><path fill="rgb(220,4,14)" stroke="rgb(220,4,14)" stroke-width="1" opacity="1" d="M 20.5 11 L 21.5 13 Q 18.7 13.7 20.5 11 Z " /><path fill="rgb(220,4,14)" stroke="rgb(220,4,14)" stroke-width="1" opacity="1" d="M 1.5 13 L 1 14.5 L 2 16.5 L 0 15.5 L 1.5 13 Z " /><path fill="rgb(220,4,14)" stroke="rgb(220,4,14)" stroke-width="1" opacity="1" d="M 6.5 15 Q 9.5 16.5 6.5 18 Q 3.5 16.5 6.5 15 Z " /><path fill="rgb(220,4,14)" stroke="rgb(220,4,14)" stroke-width="1" opacity="1" d="M 2.5 19 L 4 23.5 L 3 23.5 L 2.5 19 Z " /><path fill="rgb(220,4,14)" stroke="rgb(220,4,14)" stroke-width="1" opacity="1" d="M 37.5 21 L 38 25.5 L 37 25.5 L 37.5 21 Z " /><path fill="rgb(220,4,14)" stroke="rgb(220,4,14)" stroke-width="1" opacity="1" d="M 8.5 33 L 9.5 35 L 8.5 33 Z " /><path fill="rgb(220,4,14)" stroke="rgb(220,4,14)" stroke-width="1" opacity="1" d="M 12.5 35 L 13.5 37 L 12.5 35 Z " /><path fill="rgb(220,4,14)" stroke="rgb(220,4,14)" stroke-width="1" opacity="1" d="M 9.5 37 Q 11.8 36.3 11 38.5 L 8 38.5 L 9.5 37 Z " /><path fill="rgb(214,2,1)" stroke="rgb(214,2,1)" stroke-width="1" opacity="1" d="M 1.5 0 L 2 4.5 L 1 4.5 L 1.5 0 Z " /><path fill="rgb(214,2,1)" stroke="rgb(214,2,1)" stroke-width="1" opacity="1" d="M 8.5 0 L 10 1.5 L 10 8 L 6 6.5 L 8.5 0 Z " /><path fill="rgb(214,2,1)" stroke="rgb(214,2,1)" stroke-width="1" opacity="1" d="M 16.5 0 L 17 2.5 L 14 4 L 14.5 1 L 16 1.5 L 16.5 0 Z " /><path fill="rgb(214,2,1)" stroke="rgb(214,2,1)" stroke-width="1" opacity="1" d="M 20 0 Q 24.5 -1.8 23 3.5 Q 25.3 4.8 22.5 6 Q 20.3 6.8 21 4.5 L 20 0 Z " /><path fill="rgb(214,2,1)" stroke="rgb(214,2,1)" stroke-width="1" opacity="1" d="M 32 0 Q 35 -1 34 2 L 30 3 L 30.5 1 L 32 1.5 L 32 0 Z " /><path fill="rgb(214,2,1)" stroke="rgb(214,2,1)" stroke-width="1" opacity="1" d="M 16 8 Q 19 7 18 10 Q 15 11 16 8 Z " /><path fill="rgb(214,2,1)" stroke="rgb(214,2,1)" stroke-width="1" opacity="1" d="M 35.5 8 L 36 15.5 L 35 15.5 L 35.5 8 Z " /><path fill="rgb(214,2,1)" stroke="rgb(214,2,1)" stroke-width="1" opacity="1" d="M 25.5 9 L 26 13.5 L 25 13.5 L 25.5 9 Z " /><path fill="rgb(214,2,1)" stroke="rgb(214,2,1)" stroke-width="1" opacity="1" d="M 38.5 11 L 40 21.5 L 39 23.5 Q 41.7 25.2 40 31.5 L 39 31.5 L 38 25.5 L 38 23.5 L 38.5 11 Z " /><path fill="rgb(214,2,1)" stroke="rgb(214,2,1)" stroke-width="1" opacity="1" d="M 3.5 12 Q 5.8 11.3 5 13.5 L 6 15.5 L 4.5 15 L 3 15.5 L 3.5 17 L 2 13.5 L 3.5 12 Z " /><path fill="rgb(214,2,1)" stroke="rgb(214,2,1)" stroke-width="1" opacity="1" d="M 2.5 18 Q 6.7 16.7 5 21.5 L 4 21.5 L 2.5 18 Z " /><path fill="rgb(214,2,1)" stroke="rgb(214,2,1)" stroke-width="1" opacity="1" d="M 22.5 20 L 25 23.5 L 23.5 24 L 21 23 L 22.5 20 Z " /><path fill="rgb(214,2,1)" stroke="rgb(214,2,1)" stroke-width="1" opacity="1" d="M 35.5 21 L 36 25.5 L 34.5 29 L 34 26.5 L 35 23.5 L 35.5 21 Z " /><path fill="rgb(214,2,1)" stroke="rgb(214,2,1)" stroke-width="1" opacity="1" d="M 2.5 23 L 4 27 Q 0.3 25.6 2 31.5 L 1 31.5 L 0 27.5 L 2 27 L 2.5 23 Z " /><path fill="rgb(214,2,1)" stroke="rgb(214,2,1)" stroke-width="1" opacity="1" d="M 20.5 24 L 21.5 26 L 20.5 24 Z " /><path fill="rgb(214,2,1)" stroke="rgb(214,2,1)" stroke-width="1" opacity="1" d="M 7 30 Q 10 29 9 32 Q 6 33 7 30 Z " /><path fill="rgb(214,2,1)" stroke="rgb(214,2,1)" stroke-width="1" opacity="1" d="M 33.5 32 L 33 33.5 L 31.5 36 L 32 34.5 L 33.5 32 Z " /><path fill="rgb(214,2,1)" stroke="rgb(214,2,1)" stroke-width="1" opacity="1" d="M 2 35 Q 4.7 33.9 4 36.5 L 6.5 40 L 2 40 L 2 35 Z " /><path fill="rgb(214,2,1)" stroke="rgb(214,2,1)" stroke-width="1" opacity="1" d="M 29.5 35 L 30 37 L 28 37.5 L 28.5 39 Q 25.5 39.7 27 36 L 29.5 35 Z " /><path fill="rgb(214,2,1)" stroke="rgb(214,2,1)" stroke-width="1" opacity="1" d="M 18.5 38 L 25 38.5 Q 23.7 41.3 22.5 39 Q 17.5 40 18.5 38 Z " /><path fill="rgb(220,0,2)" stroke="rgb(220,0,2)" stroke-width="1" opacity="1" d="M 7.5 0 L 7 1.5 L 6.5 4 L 6 1.5 L 7.5 0 Z " /><path fill="rgb(220,0,2)" stroke="rgb(220,0,2)" stroke-width="1" opacity="1" d="M 23.5 0 L 25 3.5 L 23 4 L 23.5 0 Z " /><path fill="rgb(220,0,2)" stroke="rgb(220,0,2)" stroke-width="1" opacity="1" d="M 34.5 0 L 35 4 Q 39 2.6 37 9.5 L 38 9.5 L 38.5 8 L 39 10.5 L 38 16 L 35.5 17 L 36 15.5 L 36 8.5 Q 33 5.1 34.5 0 Z " /><path fill="rgb(220,0,2)" stroke="rgb(220,0,2)" stroke-width="1" opacity="1" d="M 13.5 1 L 14 4 L 17 2.5 L 17.5 1 L 18 2.5 L 17 4.5 L 18 8 L 16 8 L 16 6 Q 13.3 7.1 14 4.5 L 13.5 1 Z " /><path fill="rgb(220,0,2)" stroke="rgb(220,0,2)" stroke-width="1" opacity="1" d="M 10.5 3 L 11 5.5 L 10 5.5 L 10.5 3 Z " /><path fill="rgb(220,0,2)" stroke="rgb(220,0,2)" stroke-width="1" opacity="1" d="M 20.5 4 L 21 6 L 23.5 5 L 25 6.5 L 25 16.5 L 23 17.5 L 24 15 Q 20.7 16.3 22 11.5 Q 19 8.8 20.5 4 Z " /><path fill="rgb(220,0,2)" stroke="rgb(220,0,2)" stroke-width="1" opacity="1" d="M 2.5 6 L 3.5 8 Q 5.8 3.7 8 8.5 L 6 9 L 5.5 14 L 5 12 L 2.5 13 L 0 8.5 L 2 8 L 2.5 6 Z " /><path fill="rgb(220,0,2)" stroke="rgb(220,0,2)" stroke-width="1" opacity="1" d="M 35.5 19 L 37 23.5 L 36 23.5 L 35.5 19 Z " /><path fill="rgb(220,0,2)" stroke="rgb(220,0,2)" stroke-width="1" opacity="1" d="M 4.5 22 L 5 26 L 9 26.5 L 2.5 28 L 0 27 Q -1 24 2 25 Q 1 28 4 27 L 4.5 22 Z " /><path fill="rgb(220,0,2)" stroke="rgb(220,0,2)" stroke-width="1" opacity="1" d="M 21 23 L 25 24.5 L 22.5 26 L 21 23 Z " /><path fill="rgb(220,0,2)" stroke="rgb(220,0,2)" stroke-width="1" opacity="1" d="M 9.5 28 L 8.5 30 Q 6.3 29.3 7 31.5 L 7.5 33 Q 5.3 32.3 6 34.5 L 9 39.5 L 7.5 40 L 4 35 Q 1 36 2 33 Q 5.7 34.5 5 31.5 L 9.5 28 Z " /><path fill="rgb(220,0,2)" stroke="rgb(220,0,2)" stroke-width="1" opacity="1" d="M 38.5 30 Q 41.5 33.1 40 40 L 33 40 L 33 37.5 L 31.5 35 L 30 35.5 L 33 34.5 L 34.5 32 L 38 33 L 38.5 30 Z " /><path fill="rgb(220,0,2)" stroke="rgb(220,0,2)" stroke-width="1" opacity="1" d="M 14.5 37 Q 15.8 39.8 20 39.5 L 16.5 40 L 14.5 37 Z " /><path fill="rgb(250,133,40)" stroke="rgb(250,133,40)" stroke-width="1" opacity="1" d="M 32.5 5 L 33 10.5 L 32 10.5 L 32.5 5 Z " /><path fill="rgb(250,133,40)" stroke="rgb(250,133,40)" stroke-width="1" opacity="1" d="M 27.5 9 L 28 15.5 L 27 15.5 L 27.5 9 Z " /><path fill="rgb(250,133,40)" stroke="rgb(250,133,40)" stroke-width="1" opacity="1" d="M 7.5 23 L 10 23.5 L 7.5 24 L 7.5 23 Z " /><path fill="rgb(250,133,40)" stroke="rgb(250,133,40)" stroke-width="1" opacity="1" d="M 12.5 31 L 13.5 33 L 12.5 31 Z " /><path fill="rgb(250,133,40)" stroke="rgb(250,133,40)" stroke-width="1" opacity="1" d="M 29.5 32 L 27.5 35 L 29.5 32 Z " /><path fill="rgb(162,11,0)" stroke="rgb(162,11,0)" stroke-width="1" opacity="1" d="M 29.5 3 L 32 3.5 L 29.5 4 L 29.5 3 Z " /><path fill="rgb(162,11,0)" stroke="rgb(162,11,0)" stroke-width="1" opacity="1" d="M 12.5 10 L 16 11 L 20 19.5 L 18 18.5 Q 20.8 16.8 16.5 15 L 15 14.5 Q 17.8 12.8 13.5 11 L 11 12.5 L 12.5 10 Z " /><path fill="rgb(162,11,0)" stroke="rgb(162,11,0)" stroke-width="1" opacity="1" d="M 9.5 15 L 7.5 18 L 9.5 15 Z " /><path fill="rgb(162,11,0)" stroke="rgb(162,11,0)" stroke-width="1" opacity="1" d="M 16.5 24 L 19 27.5 L 17.5 27 Q 14.4 27.7 16.5 24 Z " /><path fill="rgb(162,11,0)" stroke="rgb(162,11,0)" stroke-width="1" opacity="1" d="M 26.5 25 L 26.5 28 L 24 27.5 L 26.5 25 Z " /><path fill="rgb(230,105,17)" stroke="rgb(230,105,17)" stroke-width="1" opacity="1" d="M 12.5 12 L 15 13.5 L 13.5 13 L 12.5 12 Z " /><path fill="rgb(230,105,17)" stroke="rgb(230,105,17)" stroke-width="1" opacity="1" d="M 27.5 19 L 28 25.5 L 27 25.5 L 27.5 19 Z " /><path fill="rgb(230,105,17)" stroke="rgb(230,105,17)" stroke-width="1" opacity="1" d="M 16.5 23 L 19 23.5 L 16.5 24 L 16.5 23 Z " /><path fill="rgb(230,105,17)" stroke="rgb(230,105,17)" stroke-width="1" opacity="1" d="M 14.5 33 L 15.5 35 L 14.5 33 Z " /><path fill="rgb(224,0,12)" stroke="rgb(224,0,12)" stroke-width="1" opacity="1" d="M 2 0 L 7 0.5 L 6 5.5 L 3.5 8 L 2 0 Z " /><path fill="rgb(224,0,12)" stroke="rgb(224,0,12)" stroke-width="1" opacity="1" d="M 10.5 0 L 14 0.5 L 13 3.5 L 14 6 Q 17.3 4.9 16 9 L 11 7 L 10.5 0 Z " /><path fill="rgb(224,0,12)" stroke="rgb(224,0,12)" stroke-width="1" opacity="1" d="M 24 0 L 27 0.5 L 26 3 Q 22.7 4.1 24 0 Z " /><path fill="rgb(224,0,12)" stroke="rgb(224,0,12)" stroke-width="1" opacity="1" d="M 30.5 0 Q 32.8 -0.8 32 1.5 L 30.5 0 Z " /><path fill="rgb(224,0,12)" stroke="rgb(224,0,12)" stroke-width="1" opacity="1" d="M 35 0 L 40 0.5 L 37.5 10 L 37 4 Q 33.3 5.2 35 0 Z " /><path fill="rgb(224,0,12)" stroke="rgb(224,0,12)" stroke-width="1" opacity="1" d="M 18.5 2 L 20 3.5 L 21 10 Q 18.3 11.1 19 8.5 L 17 3.5 L 18.5 2 Z " /><path fill="rgb(224,0,12)" stroke="rgb(224,0,12)" stroke-width="1" opacity="1" d="M 0.5 9 L 2 12.5 L 0 13.5 L 0.5 9 Z " /><path fill="rgb(224,0,12)" stroke="rgb(224,0,12)" stroke-width="1" opacity="1" d="M 6 9 Q 9 7.8 8 11.5 L 6.5 15 L 6 9 Z " /><path fill="rgb(224,0,12)" stroke="rgb(224,0,12)" stroke-width="1" opacity="1" d="M 23.5 15 L 25 20 Q 22.3 21.1 23 18.5 L 22 16.5 L 23.5 15 Z " /><path fill="rgb(224,0,12)" stroke="rgb(224,0,12)" stroke-width="1" opacity="1" d="M 36 16 L 38 16 L 38 21 L 36 21 L 36 16 Z " /><path fill="rgb(224,0,12)" stroke="rgb(224,0,12)" stroke-width="1" opacity="1" d="M 0 17 L 2 17.5 L 2 19.5 L 3 21.5 L 2 25 L 0 24.5 L 0 17 Z " /><path fill="rgb(224,0,12)" stroke="rgb(224,0,12)" stroke-width="1" opacity="1" d="M 36.5 24 L 38 27.5 L 38 29.5 Q 39.7 34.3 35.5 33 L 34 30.5 L 36.5 24 Z " /><path fill="rgb(224,0,12)" stroke="rgb(224,0,12)" stroke-width="1" opacity="1" d="M 5.5 27 Q 10.3 25.7 9 29 L 5 31.5 Q 5.7 34.5 2 33 L 2 28 L 4.5 28 L 5.5 27 Z " /><path fill="rgb(224,0,12)" stroke="rgb(224,0,12)" stroke-width="1" opacity="1" d="M 6 33 L 11.5 37 L 12.5 36 Q 14.2 39.1 16 37.5 L 15.5 40 L 12.5 39 L 10.5 40 L 11 38.5 Q 11.8 36.3 9.5 37 Q 8.3 39.3 7 36.5 L 6 33 Z " /><path fill="rgb(224,0,12)" stroke="rgb(224,0,12)" stroke-width="1" opacity="1" d="M 29 37 L 31.5 38 L 33 37.5 L 33 40 L 26.5 40 L 26.5 39 Q 30.3 40 29 37 Z " /><path fill="rgb(255,159,56)" stroke="rgb(255,159,56)" stroke-width="1" opacity="1" d="M 27 5 L 29 5.5 L 27.5 9 L 27 5 Z " /><path fill="rgb(255,159,56)" stroke="rgb(255,159,56)" stroke-width="1" opacity="1" d="M 32.5 11 L 33 16.5 L 32 16.5 L 32.5 11 Z " /><path fill="rgb(255,159,56)" stroke="rgb(255,159,56)" stroke-width="1" opacity="1" d="M 32.5 18 L 33 20.5 L 32 20.5 L 32.5 18 Z " /><path fill="rgb(255,159,56)" stroke="rgb(255,159,56)" stroke-width="1" opacity="1" d="M 7.5 20 L 7.5 23 Q 5.3 23.8 6 21.5 L 7.5 20 Z " /><path fill="rgb(255,159,56)" stroke="rgb(255,159,56)" stroke-width="1" opacity="1" d="M 19.5 21 L 20 23 L 18 22.5 L 19.5 21 Z " /><path fill="rgb(255,159,56)" stroke="rgb(255,159,56)" stroke-width="1" opacity="1" d="M 32.5 24 L 33 26.5 L 32 26.5 L 32.5 24 Z " /><path fill="rgb(255,159,56)" stroke="rgb(255,159,56)" stroke-width="1" opacity="1" d="M 14.5 32 L 16.5 35 L 14.5 32 Z " /><path fill="rgb(255,159,56)" stroke="rgb(255,159,56)" stroke-width="1" opacity="1" d="M 19.5 35 L 22 35.5 L 19.5 36 L 19.5 35 Z " /><path fill="rgb(189,33,0)" stroke="rgb(189,33,0)" stroke-width="1" opacity="1" d="M 27.5 4 L 32 4.5 L 27 5 L 26.5 7 L 26 5.5 L 27.5 4 Z " /><path fill="rgb(189,33,0)" stroke="rgb(189,33,0)" stroke-width="1" opacity="1" d="M 26.5 8 L 27 18.5 L 26 18.5 L 26.5 8 Z " /><path fill="rgb(189,33,0)" stroke="rgb(189,33,0)" stroke-width="1" opacity="1" d="M 33.5 8 L 34 27.5 L 33 27.5 L 33.5 8 Z " /><path fill="rgb(189,33,0)" stroke="rgb(189,33,0)" stroke-width="1" opacity="1" d="M 8.5 17 L 7.5 19 L 8.5 17 Z " /><path fill="rgb(189,33,0)" stroke="rgb(189,33,0)" stroke-width="1" opacity="1" d="M 26.5 22 L 27 24.5 L 26 24.5 L 26.5 22 Z " /><path fill="rgb(189,33,0)" stroke="rgb(189,33,0)" stroke-width="1" opacity="1" d="M 7.5 24 Q 10.8 22.9 10 25.5 L 8.5 25 L 7.5 24 Z " /><path fill="rgb(189,33,0)" stroke="rgb(189,33,0)" stroke-width="1" opacity="1" d="M 17.5 28 L 18.5 30 L 17.5 28 Z " /><path fill="rgb(189,33,0)" stroke="rgb(189,33,0)" stroke-width="1" opacity="1" d="M 32.5 29 L 33 32 L 31 31.5 L 32.5 29 Z " /><path fill="rgb(189,33,0)" stroke="rgb(189,33,0)" stroke-width="1" opacity="1" d="M 11.5 31 L 13.5 34 Q 11.3 34.8 12 32.5 L 11.5 31 Z " /><path fill="rgb(189,33,0)" stroke="rgb(189,33,0)" stroke-width="1" opacity="1" d="M 15.5 35 L 20 36.5 L 17.5 37 L 15.5 35 Z " /><path fill="rgb(189,33,0)" stroke="rgb(189,33,0)" stroke-width="1" opacity="1" d="M 23.5 36 L 26 36.5 L 23.5 37 L 23.5 36 Z " /><path fill="rgb(128,4,0)" stroke="rgb(128,4,0)" stroke-width="1" opacity="1" d="M 13.5 11 L 15.5 14 L 13.5 11 Z " /><path fill="rgb(128,4,0)" stroke="rgb(128,4,0)" stroke-width="1" opacity="1" d="M 16.5 15 L 18.5 18 L 16.5 15 Z " /><path fill="rgb(128,4,0)" stroke="rgb(128,4,0)" stroke-width="1" opacity="1" d="M 26.5 26 L 26 27.5 Q 26.8 29.8 24.5 29 L 19.5 30 L 17.5 27 Q 19 29.5 24.5 28 L 26.5 26 Z " /><path fill="rgb(219,33,7)" stroke="rgb(219,33,7)" stroke-width="1" opacity="1" d="M 20.5 21 L 21 22.5 L 19 23.5 L 20.5 21 Z " /><path fill="rgb(219,33,7)" stroke="rgb(219,33,7)" stroke-width="1" opacity="1" d="M 30.5 32 L 28.5 35 L 30.5 32 Z " /><path fill="rgb(219,33,7)" stroke="rgb(219,33,7)" stroke-width="1" opacity="1" d="M 20.5 36 L 23 36.5 L 20.5 37 L 20.5 36 Z " /><path fill="rgb(254,175,47)" stroke="rgb(254,175,47)" stroke-width="1" opacity="1" d="M 29.5 5 L 32 6.5 L 31.5 8 L 30.5 6 L 28.5 7 L 29.5 5 Z " /><path fill="rgb(254,175,47)" stroke="rgb(254,175,47)" stroke-width="1" opacity="1" d="M 28.5 12 L 29 15.5 L 28 15.5 L 28.5 12 Z " /><path fill="rgb(254,175,47)" stroke="rgb(254,175,47)" stroke-width="1" opacity="1" d="M 12.5 13 L 15 14.5 L 10.5 17 L 11 15.5 L 12.5 13 Z " /><path fill="rgb(254,175,47)" stroke="rgb(254,175,47)" stroke-width="1" opacity="1" d="M 16.5 18 L 19 21.5 L 17 22.5 L 18 20.5 L 16.5 18 Z " /><path fill="rgb(254,175,47)" stroke="rgb(254,175,47)" stroke-width="1" opacity="1" d="M 28.5 18 L 29 27.5 L 26 29.5 L 28 26.5 L 28.5 18 Z " /><path fill="rgb(254,175,47)" stroke="rgb(254,175,47)" stroke-width="1" opacity="1" d="M 7.5 21 L 8.5 23 L 7.5 21 Z " /><path fill="rgb(254,175,47)" stroke="rgb(254,175,47)" stroke-width="1" opacity="1" d="M 32.5 21 L 33 23.5 L 32 23.5 L 32.5 21 Z " /><path fill="rgb(254,175,47)" stroke="rgb(254,175,47)" stroke-width="1" opacity="1" d="M 15.5 25 L 17 28.5 L 15 27.5 L 15.5 25 Z " /><path fill="rgb(254,175,47)" stroke="rgb(254,175,47)" stroke-width="1" opacity="1" d="M 31.5 29 L 27.5 34 L 25.5 35 L 27.5 32 L 31.5 29 Z " /><path fill="rgb(254,175,47)" stroke="rgb(254,175,47)" stroke-width="1" opacity="1" d="M 18.5 30 L 23 31.5 L 19.5 32 L 18.5 30 Z " /><path fill="rgb(254,175,47)" stroke="rgb(254,175,47)" stroke-width="1" opacity="1" d="M 15.5 32 L 19 34.5 L 17.5 35 L 15.5 32 Z " /><path fill="rgb(212,1,12)" stroke="rgb(212,1,12)" stroke-width="1" opacity="1" d="M 27 0 Q 30 -1 29 2 L 25.5 4 L 27 1.5 L 27 0 Z " /><path fill="rgb(212,1,12)" stroke="rgb(212,1,12)" stroke-width="1" opacity="1" d="M 1.5 5 L 3 5.5 L 2 8 Q -0.7 9.1 0 6.5 L 1.5 5 Z " /><path fill="rgb(212,1,12)" stroke="rgb(212,1,12)" stroke-width="1" opacity="1" d="M 10.5 6 L 15 9.5 L 10 9.5 L 10 7.5 L 10.5 6 Z " /><path fill="rgb(212,1,12)" stroke="rgb(212,1,12)" stroke-width="1" opacity="1" d="M 39.5 8 L 40 15.5 L 39 15.5 L 39.5 8 Z " /><path fill="rgb(212,1,12)" stroke="rgb(212,1,12)" stroke-width="1" opacity="1" d="M 18.5 9 L 22 11.5 L 20 11.5 Q 19.3 14.1 22 13 L 22 16.5 L 20 17.5 L 20.5 16 L 18 14.5 L 18.5 9 Z " /><path fill="rgb(212,1,12)" stroke="rgb(212,1,12)" stroke-width="1" opacity="1" d="M 1.5 14 L 2 15.5 L 0 16.5 L 1.5 14 Z " /><path fill="rgb(212,1,12)" stroke="rgb(212,1,12)" stroke-width="1" opacity="1" d="M 23.5 20 Q 25.8 19.3 25 21.5 L 23.5 20 Z " /><path fill="rgb(212,1,12)" stroke="rgb(212,1,12)" stroke-width="1" opacity="1" d="M 18 25 L 22.5 27 L 24.5 26 L 23.5 28 L 20.5 27 Q 19.2 29.3 18 26.5 L 18 25 Z " /><path fill="rgb(212,1,12)" stroke="rgb(212,1,12)" stroke-width="1" opacity="1" d="M 0 32 L 2 32.5 L 2 40 L 0 39.5 L 0 32 Z " /><path fill="rgb(212,1,12)" stroke="rgb(212,1,12)" stroke-width="1" opacity="1" d="M 8.5 32 L 11 33.5 L 12 36.5 L 10 35.5 L 8.5 32 Z " /><path fill="rgb(253,183,22)" stroke="rgb(253,183,22)" stroke-width="1" opacity="1" d="M 30.5 6 Q 32.9 8.1 32 13.5 L 32 15.5 L 31 19.5 L 32 20.5 L 32 28.5 L 28 31.5 L 27 29.5 L 29 27.5 L 29 18.5 L 28 16.5 L 29 12.5 L 28 7 L 30.5 6 Z M 29 8 L 29 12 L 31 13 Q 33 7 29 8 Z M 29 16 Q 28 19 31 18 Q 32 15 29 16 Z M 31 22 L 29 30 L 31 29 L 31 22 Z " /><path fill="rgb(253,183,22)" stroke="rgb(253,183,22)" stroke-width="1" opacity="1" d="M 12.5 15 Q 15.8 13.9 15 16.5 L 18 21.5 L 15.5 25 L 15 23.5 L 17 20.5 L 14 19 Q 15.3 24.5 11.5 26 L 8 20.5 L 9 17 L 12.5 15 Z M 11 19 L 9 21 L 10 22 L 12 21 L 11 19 Z " /><path fill="rgb(253,183,22)" stroke="rgb(253,183,22)" stroke-width="1" opacity="1" d="M 14.5 28 L 18 29 L 20 34 Q 25.1 35.3 26.5 32 L 24.5 35 L 19.5 35 L 13 30.5 L 14.5 28 Z M 16 29 L 15 31 L 18 32 L 16 29 Z " /><path fill="rgb(253,183,22)" stroke="rgb(253,183,22)" stroke-width="1" opacity="1" d="M 24.5 30 L 26 30.5 L 23.5 32 L 24.5 30 Z " /><path fill="rgb(250,189,5)" stroke="rgb(250,189,5)" stroke-width="1" opacity="1" d="M 29 8 Q 32.7 6.7 31 12.5 L 29 11.5 L 29 8 Z " /><path fill="rgb(250,189,5)" stroke="rgb(250,189,5)" stroke-width="1" opacity="1" d="M 29 16 Q 32 15 31 18 Q 28 19 29 16 Z " /><path fill="rgb(250,189,5)" stroke="rgb(250,189,5)" stroke-width="1" opacity="1" d="M 10.5 19 L 11.5 21 L 9.5 22 L 9 20.5 L 10.5 19 Z " /><path fill="rgb(250,189,5)" stroke="rgb(250,189,5)" stroke-width="1" opacity="1" d="M 14 19 L 17 20.5 L 13.5 29 L 12 25.5 Q 15.3 24.1 14 19 Z " /><path fill="rgb(250,189,5)" stroke="rgb(250,189,5)" stroke-width="1" opacity="1" d="M 30.5 22 L 31 28.5 L 29 29.5 L 30.5 22 Z " /><path fill="rgb(250,189,5)" stroke="rgb(250,189,5)" stroke-width="1" opacity="1" d="M 15.5 29 L 17.5 32 L 15 30.5 L 15.5 29 Z " /><path fill="rgb(250,189,5)" stroke="rgb(250,189,5)" stroke-width="1" opacity="1" d="M 26.5 30 Q 29.1 29.3 28 32 L 24.5 34 L 20 34 Q 18.7 30.7 23.5 32 L 26.5 30 Z " /><path fill="rgb(202,8,1)" stroke="rgb(202,8,1)" stroke-width="1" opacity="1" d="M 0.5 0 L 1 5.5 L 0 5.5 L 0.5 0 Z " /><path fill="rgb(202,8,1)" stroke="rgb(202,8,1)" stroke-width="1" opacity="1" d="M 14.5 0 Q 16.8 -0.8 16 1.5 L 14.5 0 Z " /><path fill="rgb(202,8,1)" stroke="rgb(202,8,1)" stroke-width="1" opacity="1" d="M 27.5 2 L 27 3.5 L 25.5 9 L 25 5.5 L 27.5 2 Z " /><path fill="rgb(202,8,1)" stroke="rgb(202,8,1)" stroke-width="1" opacity="1" d="M 32 2 Q 35.3 0.7 34 5.5 L 35 6.5 L 35 23.5 L 34 23.5 Q 35.7 9.4 32 2 Z " /><path fill="rgb(202,8,1)" stroke="rgb(202,8,1)" stroke-width="1" opacity="1" d="M 10.5 8 L 10.5 10 L 12 10.5 L 10 11 L 8.5 16 L 8 13.5 L 10.5 8 Z " /><path fill="rgb(202,8,1)" stroke="rgb(202,8,1)" stroke-width="1" opacity="1" d="M 14.5 10 Q 20.2 8.2 18 14.5 L 21 16.5 L 19.5 17 L 16 11 L 14.5 10 Z " /><path fill="rgb(202,8,1)" stroke="rgb(202,8,1)" stroke-width="1" opacity="1" d="M 25.5 14 L 26 17.5 L 25 17.5 L 25.5 14 Z " /><path fill="rgb(202,8,1)" stroke="rgb(202,8,1)" stroke-width="1" opacity="1" d="M 3.5 15 Q 5.8 14.3 5 16.5 L 7 16.5 Q 4.5 18 6 23.5 L 10 26.5 L 8.5 26 Q 5.2 27.1 6 24.5 L 5 18 Q 1.2 19.5 2 16.5 L 3.5 15 Z " /><path fill="rgb(202,8,1)" stroke="rgb(202,8,1)" stroke-width="1" opacity="1" d="M 20.5 18 L 21 20.5 L 20 20.5 L 20.5 18 Z " /><path fill="rgb(202,8,1)" stroke="rgb(202,8,1)" stroke-width="1" opacity="1" d="M 26.5 19 L 27 21.5 L 26 26 L 24 25.5 L 25 23.5 L 25 21.5 L 26.5 19 Z " /><path fill="rgb(202,8,1)" stroke="rgb(202,8,1)" stroke-width="1" opacity="1" d="M 39.5 22 L 40 23.5 L 38 24.5 L 39.5 22 Z " /><path fill="rgb(202,8,1)" stroke="rgb(202,8,1)" stroke-width="1" opacity="1" d="M 20.5 23 L 19.5 25 L 17.5 26 L 18.5 24 L 20.5 23 Z " /><path fill="rgb(202,8,1)" stroke="rgb(202,8,1)" stroke-width="1" opacity="1" d="M 0.5 28 L 1 31.5 L 0 31.5 L 0.5 28 Z " /><path fill="rgb(202,8,1)" stroke="rgb(202,8,1)" stroke-width="1" opacity="1" d="M 33.5 28 L 34 31.5 L 28.5 36 L 31.5 32 L 33 32 L 33.5 28 Z " /><path fill="rgb(202,8,1)" stroke="rgb(202,8,1)" stroke-width="1" opacity="1" d="M 10.5 29 L 12 34 L 15 35.5 L 13.5 36 L 11 35 L 9 30.5 L 10.5 29 Z " /><path fill="rgb(202,8,1)" stroke="rgb(202,8,1)" stroke-width="1" opacity="1" d="M 26.5 36 L 27 38 L 16 37.5 L 25.5 37 L 26.5 36 Z " /></svg>